<svg width="48" height="49" viewBox="0 0 48 49" fill="none" xmlns="http://www.w3.org/2000/svg">
<path d="M8.85292 41.0935L5.48242 3.29199H42.5174L39.1424 41.0875L23.9774 45.292L8.85292 41.0935Z" fill="#E44F26"/>
<path d="M24 42.0793L36.255 38.6818L39.138 6.38379H24V42.0793Z" fill="#F1662A"/>
<path d="M24 20.4026H17.865L17.442 15.6551H24V11.0186H12.375L12.486 12.2636L13.6245 25.0391H24V20.4026ZM24 32.4431L23.979 32.4491L18.816 31.0556L18.486 27.3581H13.8315L14.481 34.6361L23.979 37.2731L24 37.2671V32.4431Z" fill="#EBEBEB"/>
<path d="M23.9844 20.4026V25.0391H29.6934L29.1564 31.0526L23.9844 32.4476V37.2716L33.4899 34.6361L33.5589 33.8531L34.6479 21.6476L34.7619 20.4026H23.9844V20.4026ZM23.9844 11.0186V15.6551H35.1834L35.2764 14.6141L35.4879 12.2636L35.5989 11.0186H23.9844V11.0186Z" fill="white"/>
</svg>
